<mxfile host="app.diagrams.net" agent="Mozilla/5.0 (X11; Linux x86_64; rv:135.0) Gecko/20100101 Firefox/135.0" version="26.2.13">
  <diagram name="Page-1" id="H75HtFFDJG63HQ9nsV-q">
    <mxGraphModel dx="985" dy="550" grid="1" gridSize="10" guides="1" tooltips="1" connect="1" arrows="1" fold="1" page="1" pageScale="1" pageWidth="850" pageHeight="1100" math="0" shadow="0">
      <root>
        <mxCell id="0" />
        <mxCell id="1" parent="0" />
        <mxCell id="aPKmu8sz-yiStwAFWNuy-5" value="Host system" style="rounded=0;whiteSpace=wrap;html=1;fillColor=#f5f5f5;fontColor=#333333;strokeColor=#666666;" parent="1" vertex="1">
          <mxGeometry x="465" y="430" width="285" height="30" as="geometry" />
        </mxCell>
        <mxCell id="aPKmu8sz-yiStwAFWNuy-1" value="Host application" style="rounded=0;whiteSpace=wrap;html=1;align=center;spacingLeft=170;spacingTop=105;" parent="1" vertex="1">
          <mxGeometry x="465" y="246" width="285" height="184" as="geometry" />
        </mxCell>
        <mxCell id="aPKmu8sz-yiStwAFWNuy-3" value="Plugin system" style="rounded=0;whiteSpace=wrap;html=1;fillColor=#f8cecc;strokeColor=#b85450;verticalAlign=bottom;" parent="1" vertex="1">
          <mxGeometry x="480" y="264" width="140" height="148.31" as="geometry" />
        </mxCell>
        <mxCell id="3E8i1nFt2rjh1NAYwNj2-1" value="Wasm runtime" style="rounded=0;whiteSpace=wrap;html=1;align=center;verticalAlign=top;fillColor=#e1d5e7;strokeColor=#9673a6;labelBackgroundColor=light-dark(#e1d5e7, #ededed);" vertex="1" parent="1">
          <mxGeometry x="485" y="270" width="130" height="110" as="geometry" />
        </mxCell>
        <mxCell id="3E8i1nFt2rjh1NAYwNj2-19" value="" style="group" vertex="1" connectable="0" parent="1">
          <mxGeometry x="530" y="301" width="40" height="49" as="geometry" />
        </mxCell>
        <mxCell id="3E8i1nFt2rjh1NAYwNj2-16" value="" style="rounded=0;whiteSpace=wrap;html=1;fillColor=#dae8fc;strokeColor=#6c8ebf;" vertex="1" parent="3E8i1nFt2rjh1NAYwNj2-19">
          <mxGeometry width="40" height="49" as="geometry" />
        </mxCell>
        <mxCell id="3E8i1nFt2rjh1NAYwNj2-17" value="Plugin" style="shape=image;verticalLabelPosition=bottom;labelBackgroundColor=none;verticalAlign=top;aspect=fixed;imageAspect=0;image=data:image/png,iVBORw0KGgoAAAANSUhEUgAAAgAAAAIABAMAAAAGVsnJAAAACXBIWXMAAC4jAAAuIwF4pT92AAAAIVBMVEVHcExlT/BiTO1kTvBlTvBkTvBjTe9dR+lkTu9lT/BlT/BZARz5AAAACnRSTlMA3CNto4k6EFPBwTAUcgAAEDtJREFUeNrs3b+P7EgRB/DZnX2zPyJLBIiNfCch0EaWIGEiS5yENJGFdBJsZAhfZECXbOSA6EUmvci/x/ZfCQciWLu7q6rd0zvy+zq23tofd3dVV/Xu200Xv+qd9XW8/NPtAAAAAFz46u0BXgGwBYABANbXaRMAjT3Aj5sA6OwBnjcB0NoDTJsAqKzf/34bAJM1wGEjAKEtwH4jALktwN1GABJbgJuNAAS2AG8bATjbAnzZCMBwxVsBLwDdFedBk58fYnfdbgYgtQP4tBmA5HqjoB+A0g7g82YAhqsth3gCGK92L+gJwG47tN8QQGwD8LQhAKveyHFDAFZVsecNAdgsAn6WAF8A8XXuhf0B9Ne5FfQHUF3nTsgfwBRJAR43BlBfZxD0B1Bd6QzwBiDdEt9sDmC4wp2gVwBZLvQwbQ/g51dXC/EMMF7jEugTQJIO/22TAPwt4f3zJgH4kdDjAPAK0F7hAPAKMP2BB/DNtFWAKruWgzEfBMArCxw3DMDZFd9NWwZoyUlw+7xpAHoSHKdtA1CR4C/T1gHMy8AP0/YBqvzDewEfCzBV2gMj/5i+CgDtGPhh+koApumPqvf/5/T1AEw/WxTIDq/T1wQwVX96lxLd/vaDnuPDAP5D8Pu//n/7++s/f9hTfCDATwa/+O7777/710c+wscCXMMFAAAAAAAAAAAAAAAAAAAAAAAAAAAAAAAAAAAAAAAAAAAAAAAAAAAAAAAAAAAAAAAAAAAAAAAAAAAAAAAAAAAAAAAAAAAAAAAAAAAAAAAAAAAAAAAAAAAAAAAAAAAAAAAAAAAAAAAAAAAAAAAAAAAAAAAAAAAAAAAAAAAAAAAAAAAAAAAAAAAAAAAAAAAAAAAAAAAAAAAAAAAAAAAAAAAAAAAAAAAAAAAAAAAAAAAAAAAAAAAAAAAAAAAAAAAAAAAAAAAAAAAAAAAAAAAAAAAAAAAAAAAAAAAAAAAAAAAAAAAAAAAAAAAAAAAAAAAAAAAAAAAAAAAAAAAAAAAAAAAAAAAAAAAAAAAAAAAAAAAAAAAAAAAAAAAAAAAAAAAAAAAAAAAA3gCC3ez6rL01nN35rH+g2fW4vKXZaa9HrwDn+Y9/Y7/WSXfjyPg3ez3A3ivAMP/xN+zXOuru7BijqtQD3HoFWDzsne7Ohj1ZFqivy3sKPYBhbl0AYPFdP+nu7NmTZTGtflzeExkAXr1GgflPP7BfSztZFsNbcU9qAPjiFSDkzsCAPVlihqnh/XdPXgFyxuf675WwV+uIvnE0ATx6BYgZE1Yt9aD7J1N6qHQmgL1XgIC7BM3nyu5e909m9JDuTQD3XgHO3CWIHa6q+X0vjJ+6Kg6uAugZj/vT1S6f88S88yhLA+RxcBVAw1yDFcn7kXnnibGiMvcjFwBomeG9Zz9nzRjR+c5lHFwFUDFTQUXy/sa785axTjIzjIvUAzJeEFLM2hvenQ8MdWaAvQhAzsuFE/aHSugh1ZkB7r0CJLyfnrMTlpweKIMZQJuMXQSg4EVhxaw98DKmN2kaYCg1XAKgZIX3ij9SGZlVQAC8+ASoWfwtO2MbGWlNTADc+AQYWLmwsoh5Yt0pTgMMVZlLALSs8F6zp+rAmCjhzmkcXAdQsfKwkp2ynumlkkgDDEWJSwAs1vdHZh6kGSsBPZxbEuDkEyDlTMCIvVbFq7oiVnFwJUDEmYApO2eP6BlVkwBvPgFiTlk0Y9eu0lVdEas4uBKAU8VWL1sHTh50lKcB0ji4EoDTx+jYm5ZqZVeE6E5cAoDTyRrYxbuOMZ7Cnds4uBKgYwzamh2tBsaKQr+/LA6uBBjtm7kMKmlXxKY9tvaECCMVjNnVy5IOlQ0D4M0nQEjHoIj9mMXKrohNe2wtQER/tJQdrhN6a18yAPY+AWL6h/PLtzk9mQsGwK1PgIAMwiP/O2X0ch4xAETtsbUAZzK/6fj5CuNFUg7Aq0eAnsxCBnb9umUki5z3F7XH1gI0ZPZ6Zg/Uht5ajiyAN48ALTn8AnbC1q/uili0x1YflSXTsJhduDjTgbJnAex9AmRU7I7YMzVY3xWRt8dWA+RU9hayZ2pMr2Vzo9/87wrt4+BqgITKQ/mVm4iOZok6lEb2cXA1QEGsXCN/qQrpckiunuyFfRxcDVASC1DHX6oYhY1MbVjaHxNZDVATCV7PLl2N8q7Ik+aH3HkEaIjvdmaXrjo6mHWakNPZt8dWA7REghew9ywDva0fNEnHaB8HVwNURIKXsGt3NT2Rz7rVPrM+JrL+l6Yyc4KXs3tYJV0OCXRjKLVuj60HILo5IXvTVsi7IpJa0sUAInOCxz/TGNHlkFwXJwrr9th6gNj4Wi2/iZeKuyJ77eLwySOAuZbd8HetmbgrcqcNDwePALUR/32Kcm8I9BUdy1vtYOM01S4FMBgf/P34+KXhM7XyrsgLOxhfEqAzFqXfB67fGT5TQ69jtb74ktnGwfUAo3H0vY9PJ0Mq2NPlkFK/681ty4IOfnvcWBZ9/2DPoX6clnRXJNbn0oltHHQAEJqqEdn7FD3Xj9OALmpE+rEW2MZBBwCR4dNVs1Uv0aeCibgrcjDsEg4eAUylvHYW9wp9zpSLuyJ7U/vFI0BgSAWb2Qa31E/UUNwVuTMVnk7+AEzl/H5GU+snKj2JG4N0ZXtMxAGAqR5VzhKXQTuGR7oc0pu2fJllHHQA0BimZjH7Kp12perocogxUOaWx0QcAJiKmcksslXalWqgK9uFKVAyTmpcCmAyFOTSeWTThrozncsaA2VgeUzEBYChMZXNP3io+4YBXdUzFgw4v3N6KYBc++zVYm5Eus8ci7siB+OmlNsecwGQaEdvu5iWiW4dj8hMbjTO8tbymIgLgEK7Og+L+BjolvpU3BW5M+/JnvwB6OvZ9eKRtKlgRpZDBvMbhnbtMRcA+o5GuchNek26V8m7Ii/mPdneH0CjzUGKxdRoNA/ZyrsiX8x7snt/AK02jY8W63KnCdaNPA14NU9EZhx0AaCv56aL8KhLBWtxV2T+grVdHHTyBxW1Ff1s+baalyjpz5eZM4XGLg46AdClaJUitKfqr1SQE7giaj6tXRx0AhBpPl+nWPE0qWBClkPI8xN2xyWdABSaCTwoHihWL/Y5WQ4ZpGesHvwBlJolvFZkPZpUMBR3RZ6ocXjvD6DWLD+lokZTqlMGup4TUJlCQZ7bvhjAoHn8WJG4qFPBUd4V+UKNQ157zAlApymLRooVv1HO00beFXmlSoa8YyJOAHT16lQxIltlytDTo5c8D9yQZ3EvBqAraauyA3UqeKbLIWTng/83Xt0DpMoANCo/dqb61AFZDmnp3teOvuVSAJEyAHXKxEWZCsbirsieTkh3/gDUBb1BuTBEqrU8Iov6NZ3nRTbtMTcA6pLuWbkkKVPBVNwVeaITUlYcdAOgPsIaKJMDZSpIb+RiOsaVOzqduhBAr0xSYuVLnRWDvaI/XUSnSr1NHHQDoD6+pd74qVLBjp68KZ0qdTZx0A3AqJygoTK3UaWCgzwNeKafghUHHf0XG8qxp34pVSpYk3091m8EZBZx0BFAqIhR6jxImQqWZIxvOB83tYiDjgByxRs0mvKEIhUsyBjfc6r+icUxEUcAieL76HogilQwIVfvklPvCizioCMAVU3zrHkpRSqYkzG+4FQ8F7+g9egNQFXV1vVBFalgRo5c1q+ELFrke28AvWL10R2KXMJUdIxPObN7kQjcegNQdbZ0x2KXqWAr74q8clpUnPaYI4BW8YF0B6OXi2Mj7opw/4Dxqy+ASrH86nKSZXjsxV0R7p+w/uwLYG7/NB8U97rRcrtcvRldEe4fMX/yBpAu4o8uD1KkggGZBpx5y3sgb4+5AkgWH7HXftVFKhiLuyJ3vLoEIw66AigW07jUpiSLVDAiJ+58bN9+q7zmpXNGe8wVQLkIwPpfDVikgiG5dC9WN+717AugXmxE9b8cskgF6a5IZgvw6gtgWLxEri1yzVPBkdzFV7bvT8dBVwDLolam3ZnPU8FO3BXhX0++AOZf8Vjp5+I8Pgzkyj1YA9z5AlgUtlv9ajzPEGpxV4R/PXgDmGVCb43+OeapYEmO2sAa4N4bwCyW3xh+PWq+SyjIrX5sDUAeE3EGMHvGu9IwrGepYCTuigiuoy+A2SjdF4Zh/T5CvqZkKTe0B3jxBTBLww+J4TFmqWAm7ooIrhtfALM9/X1oGIjvR8c3ZBmrXQHwyRdAJ8hI368PezJwNSsADr4ARsGe5CxMXeoVADtfAJMgGg/CSVuuATj5Agj549A4Xd7orojLOOgOwLRl3wsWtS9O0wCyPeYOIDE8xKNgujC6Ii7joDuAQLApzWQ1nDXvT8VBdwClIB3LRbuXcRXAwRdAL5jXieh5u1UAO18AjWBeF6IR268DOHkCaAXzuuSvl2vTAOqYiDuASjAKa1ERr1gH8OYJwLC0HwQ1vs+yAMu4Hn0B5Nw8yLisHR12RTjtMYcACX9/M4pKWNk6gFtfAIUgGZMErWq38nr2BFAKlqFQ8LkW8+Xv35quX8naYw4BakEgygUTdpAF9lHWHnMIMAj2N4mgHHIWdnwzUXvMIUAnWNgKQRoQCHsduag95hCgEixspaCKnQi7XbEoDjoEmAT7m1qQt+bCOm8pao+5BEhXLGyGBS4TZXYq3GdPABF/Yev4MbsSrWnKbenRE0DML0qN/HJIK212yeKgS4BAsB3jt/MHabtTFgddApwFG/KQXQ6phYV+YRx0CTAITmrl9l2RZ/FUfPAE0AnOKCTs2RKLzz6K4qBLgFFQlSzY5ZBI2O1UxcEf/QBMgv14yZ4toTAPEsZBpwAhvyJTs2fLTpgHqUbiiyeAnN+aGbizxeYvZGWC9phTgITfnOu4u4ZGmgepPsQnTwABvyw9cmdLLyvzq+PgwRNAyV3ZdQsmpytysnkOTwC94IRC+O/27p83YSCGwzCVkIIy0TUTcyfmTpk7Ze6UuRNzp8xMfASO8E/5lOzoKD+71kmt3swBWU/C2ZytxNsVaTxxfJQBGA2zmoOzDKhccbyXATgaurOdeLP05joot8B8lwFIhr7ETtwOsfV57HkwFCDbw1kYFkzhYkrvDRh0tliAQR9ROTi7IrUShyEPxgJ0+pDS6CwD3pQ4DHkwFmCnpbZHpaDSFdkqcRjyYCzAXq6Dsgvmi1Bcfvry8bYMwMEwqakVzZ2jDjLlwViAq2FGaeXqioiPTN/IySMW4GTozq+l7ZCNow4y5cFYgCTt9D/MGM3zLxTfGtDKYyKxAJNcB+X+O1fCLTX3rsZNGYBeH9Xdu7oitRbHWR4TCQZY60NqZ8Xq4qqDcnnwqwxAO5Mv2ahYLV11UG4xqssALPXG5FGJsXXVQbk8OC8DcNG3IpJiNbjqoNwHF2UArpbNKMFqZZt9/+HWqcoAnAzTGf3zvbM089VBhjwYDDC93h+/O/X+FPUXMCU1kGiAP3cAAAAAAAAAAAAAAAAAAAAAAAAAAAAAAAAAAAAAAAAAAAAAAAAAAAAAAAAAAAAAAAAAAAAAAAAAAAAAAAAAAAAAAPyr4wa5i51O977awQAAAABJRU5ErkJggg==;fontSize=12;spacing=-5;" vertex="1" parent="3E8i1nFt2rjh1NAYwNj2-19">
          <mxGeometry x="9.5" y="9" width="21" height="22" as="geometry" />
        </mxCell>
        <mxCell id="3E8i1nFt2rjh1NAYwNj2-20" value="" style="group" vertex="1" connectable="0" parent="1">
          <mxGeometry x="573" y="301" width="40" height="49" as="geometry" />
        </mxCell>
        <mxCell id="3E8i1nFt2rjh1NAYwNj2-14" value="" style="rounded=0;whiteSpace=wrap;html=1;fillColor=#dae8fc;strokeColor=#6c8ebf;" vertex="1" parent="3E8i1nFt2rjh1NAYwNj2-20">
          <mxGeometry width="40" height="49" as="geometry" />
        </mxCell>
        <mxCell id="3E8i1nFt2rjh1NAYwNj2-15" value="Plugin" style="shape=image;verticalLabelPosition=bottom;labelBackgroundColor=none;verticalAlign=top;aspect=fixed;imageAspect=0;image=data:image/png,iVBORw0KGgoAAAANSUhEUgAAAgAAAAIABAMAAAAGVsnJAAAACXBIWXMAAC4jAAAuIwF4pT92AAAAIVBMVEVHcExlT/BiTO1kTvBlTvBkTvBjTe9dR+lkTu9lT/BlT/BZARz5AAAACnRSTlMA3CNto4k6EFPBwTAUcgAAEDtJREFUeNrs3b+P7EgRB/DZnX2zPyJLBIiNfCch0EaWIGEiS5yENJGFdBJsZAhfZECXbOSA6EUmvci/x/ZfCQciWLu7q6rd0zvy+zq23tofd3dVV/Xu200Xv+qd9XW8/NPtAAAAAFz46u0BXgGwBYABANbXaRMAjT3Aj5sA6OwBnjcB0NoDTJsAqKzf/34bAJM1wGEjAKEtwH4jALktwN1GABJbgJuNAAS2AG8bATjbAnzZCMBwxVsBLwDdFedBk58fYnfdbgYgtQP4tBmA5HqjoB+A0g7g82YAhqsth3gCGK92L+gJwG47tN8QQGwD8LQhAKveyHFDAFZVsecNAdgsAn6WAF8A8XXuhf0B9Ne5FfQHUF3nTsgfwBRJAR43BlBfZxD0B1Bd6QzwBiDdEt9sDmC4wp2gVwBZLvQwbQ/g51dXC/EMMF7jEugTQJIO/22TAPwt4f3zJgH4kdDjAPAK0F7hAPAKMP2BB/DNtFWAKruWgzEfBMArCxw3DMDZFd9NWwZoyUlw+7xpAHoSHKdtA1CR4C/T1gHMy8AP0/YBqvzDewEfCzBV2gMj/5i+CgDtGPhh+koApumPqvf/5/T1AEw/WxTIDq/T1wQwVX96lxLd/vaDnuPDAP5D8Pu//n/7++s/f9hTfCDATwa/+O7777/710c+wscCXMMFAAAAAAAAAAAAAAAAAAAAAAAAAAAAAAAAAAAAAAAAAAAAAAAAAAAAAAAAAAAAAAAAAAAAAAAAAAAAAAAAAAAAAAAAAAAAAAAAAAAAAAAAAAAAAAAAAAAAAAAAAAAAAAAAAAAAAAAAAAAAAAAAAAAAAAAAAAAAAAAAAAAAAAAAAAAAAAAAAAAAAAAAAAAAAAAAAAAAAAAAAAAAAAAAAAAAAAAAAAAAAAAAAAAAAAAAAAAAAAAAAAAAAAAAAAAAAAAAAAAAAAAAAAAAAAAAAAAAAAAAAAAAAAAAAAAAAAAAAAAAAAAAAAAAAAAAAAAAAAAAAAAAAAAAAAAAAAAAAAAAAAAAAAAAAAAAAAAAAAAAAAAAAAAAAAAAAAAAAAAAAAAAAAAA3gCC3ez6rL01nN35rH+g2fW4vKXZaa9HrwDn+Y9/Y7/WSXfjyPg3ez3A3ivAMP/xN+zXOuru7BijqtQD3HoFWDzsne7Ohj1ZFqivy3sKPYBhbl0AYPFdP+nu7NmTZTGtflzeExkAXr1GgflPP7BfSztZFsNbcU9qAPjiFSDkzsCAPVlihqnh/XdPXgFyxuf675WwV+uIvnE0ATx6BYgZE1Yt9aD7J1N6qHQmgL1XgIC7BM3nyu5e909m9JDuTQD3XgHO3CWIHa6q+X0vjJ+6Kg6uAugZj/vT1S6f88S88yhLA+RxcBVAw1yDFcn7kXnnibGiMvcjFwBomeG9Zz9nzRjR+c5lHFwFUDFTQUXy/sa785axTjIzjIvUAzJeEFLM2hvenQ8MdWaAvQhAzsuFE/aHSugh1ZkB7r0CJLyfnrMTlpweKIMZQJuMXQSg4EVhxaw98DKmN2kaYCg1XAKgZIX3ij9SGZlVQAC8+ASoWfwtO2MbGWlNTADc+AQYWLmwsoh5Yt0pTgMMVZlLALSs8F6zp+rAmCjhzmkcXAdQsfKwkp2ynumlkkgDDEWJSwAs1vdHZh6kGSsBPZxbEuDkEyDlTMCIvVbFq7oiVnFwJUDEmYApO2eP6BlVkwBvPgFiTlk0Y9eu0lVdEas4uBKAU8VWL1sHTh50lKcB0ji4EoDTx+jYm5ZqZVeE6E5cAoDTyRrYxbuOMZ7Cnds4uBKgYwzamh2tBsaKQr+/LA6uBBjtm7kMKmlXxKY9tvaECCMVjNnVy5IOlQ0D4M0nQEjHoIj9mMXKrohNe2wtQER/tJQdrhN6a18yAPY+AWL6h/PLtzk9mQsGwK1PgIAMwiP/O2X0ch4xAETtsbUAZzK/6fj5CuNFUg7Aq0eAnsxCBnb9umUki5z3F7XH1gI0ZPZ6Zg/Uht5ajiyAN48ALTn8AnbC1q/uili0x1YflSXTsJhduDjTgbJnAex9AmRU7I7YMzVY3xWRt8dWA+RU9hayZ2pMr2Vzo9/87wrt4+BqgITKQ/mVm4iOZok6lEb2cXA1QEGsXCN/qQrpckiunuyFfRxcDVASC1DHX6oYhY1MbVjaHxNZDVATCV7PLl2N8q7Ik+aH3HkEaIjvdmaXrjo6mHWakNPZt8dWA7REghew9ywDva0fNEnHaB8HVwNURIKXsGt3NT2Rz7rVPrM+JrL+l6Yyc4KXs3tYJV0OCXRjKLVuj60HILo5IXvTVsi7IpJa0sUAInOCxz/TGNHlkFwXJwrr9th6gNj4Wi2/iZeKuyJ77eLwySOAuZbd8HetmbgrcqcNDwePALUR/32Kcm8I9BUdy1vtYOM01S4FMBgf/P34+KXhM7XyrsgLOxhfEqAzFqXfB67fGT5TQ69jtb74ktnGwfUAo3H0vY9PJ0Mq2NPlkFK/681ty4IOfnvcWBZ9/2DPoX6clnRXJNbn0oltHHQAEJqqEdn7FD3Xj9OALmpE+rEW2MZBBwCR4dNVs1Uv0aeCibgrcjDsEg4eAUylvHYW9wp9zpSLuyJ7U/vFI0BgSAWb2Qa31E/UUNwVuTMVnk7+AEzl/H5GU+snKj2JG4N0ZXtMxAGAqR5VzhKXQTuGR7oc0pu2fJllHHQA0BimZjH7Kp12perocogxUOaWx0QcAJiKmcksslXalWqgK9uFKVAyTmpcCmAyFOTSeWTThrozncsaA2VgeUzEBYChMZXNP3io+4YBXdUzFgw4v3N6KYBc++zVYm5Eus8ci7siB+OmlNsecwGQaEdvu5iWiW4dj8hMbjTO8tbymIgLgEK7Og+L+BjolvpU3BW5M+/JnvwB6OvZ9eKRtKlgRpZDBvMbhnbtMRcA+o5GuchNek26V8m7Ii/mPdneH0CjzUGKxdRoNA/ZyrsiX8x7snt/AK02jY8W63KnCdaNPA14NU9EZhx0AaCv56aL8KhLBWtxV2T+grVdHHTyBxW1Ff1s+baalyjpz5eZM4XGLg46AdClaJUitKfqr1SQE7giaj6tXRx0AhBpPl+nWPE0qWBClkPI8xN2xyWdABSaCTwoHihWL/Y5WQ4ZpGesHvwBlJolvFZkPZpUMBR3RZ6ocXjvD6DWLD+lokZTqlMGup4TUJlCQZ7bvhjAoHn8WJG4qFPBUd4V+UKNQ157zAlApymLRooVv1HO00beFXmlSoa8YyJOAHT16lQxIltlytDTo5c8D9yQZ3EvBqAraauyA3UqeKbLIWTng/83Xt0DpMoANCo/dqb61AFZDmnp3teOvuVSAJEyAHXKxEWZCsbirsieTkh3/gDUBb1BuTBEqrU8Iov6NZ3nRTbtMTcA6pLuWbkkKVPBVNwVeaITUlYcdAOgPsIaKJMDZSpIb+RiOsaVOzqduhBAr0xSYuVLnRWDvaI/XUSnSr1NHHQDoD6+pd74qVLBjp68KZ0qdTZx0A3AqJygoTK3UaWCgzwNeKafghUHHf0XG8qxp34pVSpYk3091m8EZBZx0BFAqIhR6jxImQqWZIxvOB83tYiDjgByxRs0mvKEIhUsyBjfc6r+icUxEUcAieL76HogilQwIVfvklPvCizioCMAVU3zrHkpRSqYkzG+4FQ8F7+g9egNQFXV1vVBFalgRo5c1q+ELFrke28AvWL10R2KXMJUdIxPObN7kQjcegNQdbZ0x2KXqWAr74q8clpUnPaYI4BW8YF0B6OXi2Mj7opw/4Dxqy+ASrH86nKSZXjsxV0R7p+w/uwLYG7/NB8U97rRcrtcvRldEe4fMX/yBpAu4o8uD1KkggGZBpx5y3sgb4+5AkgWH7HXftVFKhiLuyJ3vLoEIw66AigW07jUpiSLVDAiJ+58bN9+q7zmpXNGe8wVQLkIwPpfDVikgiG5dC9WN+717AugXmxE9b8cskgF6a5IZgvw6gtgWLxEri1yzVPBkdzFV7bvT8dBVwDLolam3ZnPU8FO3BXhX0++AOZf8Vjp5+I8Pgzkyj1YA9z5AlgUtlv9ajzPEGpxV4R/PXgDmGVCb43+OeapYEmO2sAa4N4bwCyW3xh+PWq+SyjIrX5sDUAeE3EGMHvGu9IwrGepYCTuigiuoy+A2SjdF4Zh/T5CvqZkKTe0B3jxBTBLww+J4TFmqWAm7ooIrhtfALM9/X1oGIjvR8c3ZBmrXQHwyRdAJ8hI368PezJwNSsADr4ARsGe5CxMXeoVADtfAJMgGg/CSVuuATj5Agj549A4Xd7orojLOOgOwLRl3wsWtS9O0wCyPeYOIDE8xKNgujC6Ii7joDuAQLApzWQ1nDXvT8VBdwClIB3LRbuXcRXAwRdAL5jXieh5u1UAO18AjWBeF6IR268DOHkCaAXzuuSvl2vTAOqYiDuASjAKa1ERr1gH8OYJwLC0HwQ1vs+yAMu4Hn0B5Nw8yLisHR12RTjtMYcACX9/M4pKWNk6gFtfAIUgGZMErWq38nr2BFAKlqFQ8LkW8+Xv35quX8naYw4BakEgygUTdpAF9lHWHnMIMAj2N4mgHHIWdnwzUXvMIUAnWNgKQRoQCHsduag95hCgEixspaCKnQi7XbEoDjoEmAT7m1qQt+bCOm8pao+5BEhXLGyGBS4TZXYq3GdPABF/Yev4MbsSrWnKbenRE0DML0qN/HJIK212yeKgS4BAsB3jt/MHabtTFgddApwFG/KQXQ6phYV+YRx0CTAITmrl9l2RZ/FUfPAE0AnOKCTs2RKLzz6K4qBLgFFQlSzY5ZBI2O1UxcEf/QBMgv14yZ4toTAPEsZBpwAhvyJTs2fLTpgHqUbiiyeAnN+aGbizxeYvZGWC9phTgITfnOu4u4ZGmgepPsQnTwABvyw9cmdLLyvzq+PgwRNAyV3ZdQsmpytysnkOTwC94IRC+O/27p83YSCGwzCVkIIy0TUTcyfmTpk7Ze6UuRNzp8xMfASO8E/5lOzoKD+71kmt3swBWU/C2ZytxNsVaTxxfJQBGA2zmoOzDKhccbyXATgaurOdeLP05joot8B8lwFIhr7ETtwOsfV57HkwFCDbw1kYFkzhYkrvDRh0tliAQR9ROTi7IrUShyEPxgJ0+pDS6CwD3pQ4DHkwFmCnpbZHpaDSFdkqcRjyYCzAXq6Dsgvmi1Bcfvry8bYMwMEwqakVzZ2jDjLlwViAq2FGaeXqioiPTN/IySMW4GTozq+l7ZCNow4y5cFYgCTt9D/MGM3zLxTfGtDKYyKxAJNcB+X+O1fCLTX3rsZNGYBeH9Xdu7oitRbHWR4TCQZY60NqZ8Xq4qqDcnnwqwxAO5Mv2ahYLV11UG4xqssALPXG5FGJsXXVQbk8OC8DcNG3IpJiNbjqoNwHF2UArpbNKMFqZZt9/+HWqcoAnAzTGf3zvbM089VBhjwYDDC93h+/O/X+FPUXMCU1kGiAP3cAAAAAAAAAAAAAAAAAAAAAAAAAAAAAAAAAAAAAAAAAAAAAAAAAAAAAAAAAAAAAAAAAAAAAAAAAAAAAAAAAAAAAAPyr4wa5i51O977awQAAAABJRU5ErkJggg==;fontSize=12;spacing=-5;" vertex="1" parent="3E8i1nFt2rjh1NAYwNj2-20">
          <mxGeometry x="9.5" y="9" width="21" height="22" as="geometry" />
        </mxCell>
        <mxCell id="3E8i1nFt2rjh1NAYwNj2-31" value="" style="curved=0;endArrow=classic;html=1;rounded=0;startArrow=classic;startFill=1;startSize=2;" edge="1" parent="1">
          <mxGeometry width="50" height="50" relative="1" as="geometry">
            <mxPoint x="640" y="390" as="sourcePoint" />
            <mxPoint x="592.5" y="350" as="targetPoint" />
            <Array as="points">
              <mxPoint x="592.5" y="390" />
            </Array>
          </mxGeometry>
        </mxCell>
        <mxCell id="3E8i1nFt2rjh1NAYwNj2-34" value="" style="curved=0;endArrow=classic;html=1;rounded=0;startArrow=classic;startFill=1;startSize=2;" edge="1" parent="1">
          <mxGeometry width="50" height="50" relative="1" as="geometry">
            <mxPoint x="629" y="393" as="sourcePoint" />
            <mxPoint x="550" y="350" as="targetPoint" />
            <Array as="points">
              <mxPoint x="550" y="393" />
            </Array>
          </mxGeometry>
        </mxCell>
        <mxCell id="3E8i1nFt2rjh1NAYwNj2-36" value="" style="group" vertex="1" connectable="0" parent="1">
          <mxGeometry x="487" y="301" width="40" height="49" as="geometry" />
        </mxCell>
        <mxCell id="3E8i1nFt2rjh1NAYwNj2-13" value="" style="rounded=0;whiteSpace=wrap;html=1;fillColor=#dae8fc;strokeColor=#6c8ebf;" vertex="1" parent="3E8i1nFt2rjh1NAYwNj2-36">
          <mxGeometry width="40" height="49" as="geometry" />
        </mxCell>
        <mxCell id="3E8i1nFt2rjh1NAYwNj2-9" value="Plugin" style="shape=image;verticalLabelPosition=bottom;labelBackgroundColor=none;verticalAlign=top;aspect=fixed;imageAspect=0;image=data:image/png,iVBORw0KGgoAAAANSUhEUgAAAgAAAAIABAMAAAAGVsnJAAAACXBIWXMAAC4jAAAuIwF4pT92AAAAIVBMVEVHcExlT/BiTO1kTvBlTvBkTvBjTe9dR+lkTu9lT/BlT/BZARz5AAAACnRSTlMA3CNto4k6EFPBwTAUcgAAEDtJREFUeNrs3b+P7EgRB/DZnX2zPyJLBIiNfCch0EaWIGEiS5yENJGFdBJsZAhfZECXbOSA6EUmvci/x/ZfCQciWLu7q6rd0zvy+zq23tofd3dVV/Xu200Xv+qd9XW8/NPtAAAAAFz46u0BXgGwBYABANbXaRMAjT3Aj5sA6OwBnjcB0NoDTJsAqKzf/34bAJM1wGEjAKEtwH4jALktwN1GABJbgJuNAAS2AG8bATjbAnzZCMBwxVsBLwDdFedBk58fYnfdbgYgtQP4tBmA5HqjoB+A0g7g82YAhqsth3gCGK92L+gJwG47tN8QQGwD8LQhAKveyHFDAFZVsecNAdgsAn6WAF8A8XXuhf0B9Ne5FfQHUF3nTsgfwBRJAR43BlBfZxD0B1Bd6QzwBiDdEt9sDmC4wp2gVwBZLvQwbQ/g51dXC/EMMF7jEugTQJIO/22TAPwt4f3zJgH4kdDjAPAK0F7hAPAKMP2BB/DNtFWAKruWgzEfBMArCxw3DMDZFd9NWwZoyUlw+7xpAHoSHKdtA1CR4C/T1gHMy8AP0/YBqvzDewEfCzBV2gMj/5i+CgDtGPhh+koApumPqvf/5/T1AEw/WxTIDq/T1wQwVX96lxLd/vaDnuPDAP5D8Pu//n/7++s/f9hTfCDATwa/+O7777/710c+wscCXMMFAAAAAAAAAAAAAAAAAAAAAAAAAAAAAAAAAAAAAAAAAAAAAAAAAAAAAAAAAAAAAAAAAAAAAAAAAAAAAAAAAAAAAAAAAAAAAAAAAAAAAAAAAAAAAAAAAAAAAAAAAAAAAAAAAAAAAAAAAAAAAAAAAAAAAAAAAAAAAAAAAAAAAAAAAAAAAAAAAAAAAAAAAAAAAAAAAAAAAAAAAAAAAAAAAAAAAAAAAAAAAAAAAAAAAAAAAAAAAAAAAAAAAAAAAAAAAAAAAAAAAAAAAAAAAAAAAAAAAAAAAAAAAAAAAAAAAAAAAAAAAAAAAAAAAAAAAAAAAAAAAAAAAAAAAAAAAAAAAAAAAAAAAAAAAAAAAAAAAAAAAAAAAAAAAAAAAAAAAAAAAAAAAAAA3gCC3ez6rL01nN35rH+g2fW4vKXZaa9HrwDn+Y9/Y7/WSXfjyPg3ez3A3ivAMP/xN+zXOuru7BijqtQD3HoFWDzsne7Ohj1ZFqivy3sKPYBhbl0AYPFdP+nu7NmTZTGtflzeExkAXr1GgflPP7BfSztZFsNbcU9qAPjiFSDkzsCAPVlihqnh/XdPXgFyxuf675WwV+uIvnE0ATx6BYgZE1Yt9aD7J1N6qHQmgL1XgIC7BM3nyu5e909m9JDuTQD3XgHO3CWIHa6q+X0vjJ+6Kg6uAugZj/vT1S6f88S88yhLA+RxcBVAw1yDFcn7kXnnibGiMvcjFwBomeG9Zz9nzRjR+c5lHFwFUDFTQUXy/sa785axTjIzjIvUAzJeEFLM2hvenQ8MdWaAvQhAzsuFE/aHSugh1ZkB7r0CJLyfnrMTlpweKIMZQJuMXQSg4EVhxaw98DKmN2kaYCg1XAKgZIX3ij9SGZlVQAC8+ASoWfwtO2MbGWlNTADc+AQYWLmwsoh5Yt0pTgMMVZlLALSs8F6zp+rAmCjhzmkcXAdQsfKwkp2ynumlkkgDDEWJSwAs1vdHZh6kGSsBPZxbEuDkEyDlTMCIvVbFq7oiVnFwJUDEmYApO2eP6BlVkwBvPgFiTlk0Y9eu0lVdEas4uBKAU8VWL1sHTh50lKcB0ji4EoDTx+jYm5ZqZVeE6E5cAoDTyRrYxbuOMZ7Cnds4uBKgYwzamh2tBsaKQr+/LA6uBBjtm7kMKmlXxKY9tvaECCMVjNnVy5IOlQ0D4M0nQEjHoIj9mMXKrohNe2wtQER/tJQdrhN6a18yAPY+AWL6h/PLtzk9mQsGwK1PgIAMwiP/O2X0ch4xAETtsbUAZzK/6fj5CuNFUg7Aq0eAnsxCBnb9umUki5z3F7XH1gI0ZPZ6Zg/Uht5ajiyAN48ALTn8AnbC1q/uili0x1YflSXTsJhduDjTgbJnAex9AmRU7I7YMzVY3xWRt8dWA+RU9hayZ2pMr2Vzo9/87wrt4+BqgITKQ/mVm4iOZok6lEb2cXA1QEGsXCN/qQrpckiunuyFfRxcDVASC1DHX6oYhY1MbVjaHxNZDVATCV7PLl2N8q7Ik+aH3HkEaIjvdmaXrjo6mHWakNPZt8dWA7REghew9ywDva0fNEnHaB8HVwNURIKXsGt3NT2Rz7rVPrM+JrL+l6Yyc4KXs3tYJV0OCXRjKLVuj60HILo5IXvTVsi7IpJa0sUAInOCxz/TGNHlkFwXJwrr9th6gNj4Wi2/iZeKuyJ77eLwySOAuZbd8HetmbgrcqcNDwePALUR/32Kcm8I9BUdy1vtYOM01S4FMBgf/P34+KXhM7XyrsgLOxhfEqAzFqXfB67fGT5TQ69jtb74ktnGwfUAo3H0vY9PJ0Mq2NPlkFK/681ty4IOfnvcWBZ9/2DPoX6clnRXJNbn0oltHHQAEJqqEdn7FD3Xj9OALmpE+rEW2MZBBwCR4dNVs1Uv0aeCibgrcjDsEg4eAUylvHYW9wp9zpSLuyJ7U/vFI0BgSAWb2Qa31E/UUNwVuTMVnk7+AEzl/H5GU+snKj2JG4N0ZXtMxAGAqR5VzhKXQTuGR7oc0pu2fJllHHQA0BimZjH7Kp12perocogxUOaWx0QcAJiKmcksslXalWqgK9uFKVAyTmpcCmAyFOTSeWTThrozncsaA2VgeUzEBYChMZXNP3io+4YBXdUzFgw4v3N6KYBc++zVYm5Eus8ci7siB+OmlNsecwGQaEdvu5iWiW4dj8hMbjTO8tbymIgLgEK7Og+L+BjolvpU3BW5M+/JnvwB6OvZ9eKRtKlgRpZDBvMbhnbtMRcA+o5GuchNek26V8m7Ii/mPdneH0CjzUGKxdRoNA/ZyrsiX8x7snt/AK02jY8W63KnCdaNPA14NU9EZhx0AaCv56aL8KhLBWtxV2T+grVdHHTyBxW1Ff1s+baalyjpz5eZM4XGLg46AdClaJUitKfqr1SQE7giaj6tXRx0AhBpPl+nWPE0qWBClkPI8xN2xyWdABSaCTwoHihWL/Y5WQ4ZpGesHvwBlJolvFZkPZpUMBR3RZ6ocXjvD6DWLD+lokZTqlMGup4TUJlCQZ7bvhjAoHn8WJG4qFPBUd4V+UKNQ157zAlApymLRooVv1HO00beFXmlSoa8YyJOAHT16lQxIltlytDTo5c8D9yQZ3EvBqAraauyA3UqeKbLIWTng/83Xt0DpMoANCo/dqb61AFZDmnp3teOvuVSAJEyAHXKxEWZCsbirsieTkh3/gDUBb1BuTBEqrU8Iov6NZ3nRTbtMTcA6pLuWbkkKVPBVNwVeaITUlYcdAOgPsIaKJMDZSpIb+RiOsaVOzqduhBAr0xSYuVLnRWDvaI/XUSnSr1NHHQDoD6+pd74qVLBjp68KZ0qdTZx0A3AqJygoTK3UaWCgzwNeKafghUHHf0XG8qxp34pVSpYk3091m8EZBZx0BFAqIhR6jxImQqWZIxvOB83tYiDjgByxRs0mvKEIhUsyBjfc6r+icUxEUcAieL76HogilQwIVfvklPvCizioCMAVU3zrHkpRSqYkzG+4FQ8F7+g9egNQFXV1vVBFalgRo5c1q+ELFrke28AvWL10R2KXMJUdIxPObN7kQjcegNQdbZ0x2KXqWAr74q8clpUnPaYI4BW8YF0B6OXi2Mj7opw/4Dxqy+ASrH86nKSZXjsxV0R7p+w/uwLYG7/NB8U97rRcrtcvRldEe4fMX/yBpAu4o8uD1KkggGZBpx5y3sgb4+5AkgWH7HXftVFKhiLuyJ3vLoEIw66AigW07jUpiSLVDAiJ+58bN9+q7zmpXNGe8wVQLkIwPpfDVikgiG5dC9WN+717AugXmxE9b8cskgF6a5IZgvw6gtgWLxEri1yzVPBkdzFV7bvT8dBVwDLolam3ZnPU8FO3BXhX0++AOZf8Vjp5+I8Pgzkyj1YA9z5AlgUtlv9ajzPEGpxV4R/PXgDmGVCb43+OeapYEmO2sAa4N4bwCyW3xh+PWq+SyjIrX5sDUAeE3EGMHvGu9IwrGepYCTuigiuoy+A2SjdF4Zh/T5CvqZkKTe0B3jxBTBLww+J4TFmqWAm7ooIrhtfALM9/X1oGIjvR8c3ZBmrXQHwyRdAJ8hI368PezJwNSsADr4ARsGe5CxMXeoVADtfAJMgGg/CSVuuATj5Agj549A4Xd7orojLOOgOwLRl3wsWtS9O0wCyPeYOIDE8xKNgujC6Ii7joDuAQLApzWQ1nDXvT8VBdwClIB3LRbuXcRXAwRdAL5jXieh5u1UAO18AjWBeF6IR268DOHkCaAXzuuSvl2vTAOqYiDuASjAKa1ERr1gH8OYJwLC0HwQ1vs+yAMu4Hn0B5Nw8yLisHR12RTjtMYcACX9/M4pKWNk6gFtfAIUgGZMErWq38nr2BFAKlqFQ8LkW8+Xv35quX8naYw4BakEgygUTdpAF9lHWHnMIMAj2N4mgHHIWdnwzUXvMIUAnWNgKQRoQCHsduag95hCgEixspaCKnQi7XbEoDjoEmAT7m1qQt+bCOm8pao+5BEhXLGyGBS4TZXYq3GdPABF/Yev4MbsSrWnKbenRE0DML0qN/HJIK212yeKgS4BAsB3jt/MHabtTFgddApwFG/KQXQ6phYV+YRx0CTAITmrl9l2RZ/FUfPAE0AnOKCTs2RKLzz6K4qBLgFFQlSzY5ZBI2O1UxcEf/QBMgv14yZ4toTAPEsZBpwAhvyJTs2fLTpgHqUbiiyeAnN+aGbizxeYvZGWC9phTgITfnOu4u4ZGmgepPsQnTwABvyw9cmdLLyvzq+PgwRNAyV3ZdQsmpytysnkOTwC94IRC+O/27p83YSCGwzCVkIIy0TUTcyfmTpk7Ze6UuRNzp8xMfASO8E/5lOzoKD+71kmt3swBWU/C2ZytxNsVaTxxfJQBGA2zmoOzDKhccbyXATgaurOdeLP05joot8B8lwFIhr7ETtwOsfV57HkwFCDbw1kYFkzhYkrvDRh0tliAQR9ROTi7IrUShyEPxgJ0+pDS6CwD3pQ4DHkwFmCnpbZHpaDSFdkqcRjyYCzAXq6Dsgvmi1Bcfvry8bYMwMEwqakVzZ2jDjLlwViAq2FGaeXqioiPTN/IySMW4GTozq+l7ZCNow4y5cFYgCTt9D/MGM3zLxTfGtDKYyKxAJNcB+X+O1fCLTX3rsZNGYBeH9Xdu7oitRbHWR4TCQZY60NqZ8Xq4qqDcnnwqwxAO5Mv2ahYLV11UG4xqssALPXG5FGJsXXVQbk8OC8DcNG3IpJiNbjqoNwHF2UArpbNKMFqZZt9/+HWqcoAnAzTGf3zvbM089VBhjwYDDC93h+/O/X+FPUXMCU1kGiAP3cAAAAAAAAAAAAAAAAAAAAAAAAAAAAAAAAAAAAAAAAAAAAAAAAAAAAAAAAAAAAAAAAAAAAAAAAAAAAAAAAAAAAAAPyr4wa5i51O977awQAAAABJRU5ErkJggg==;fontSize=12;spacing=-5;" vertex="1" parent="3E8i1nFt2rjh1NAYwNj2-36">
          <mxGeometry x="9.5" y="9" width="21" height="22" as="geometry" />
        </mxCell>
        <mxCell id="3E8i1nFt2rjh1NAYwNj2-37" value="" style="curved=0;endArrow=classic;html=1;rounded=0;startArrow=classic;startFill=1;startSize=2;" edge="1" parent="1">
          <mxGeometry width="50" height="50" relative="1" as="geometry">
            <mxPoint x="637" y="396" as="sourcePoint" />
            <mxPoint x="507" y="350" as="targetPoint" />
            <Array as="points">
              <mxPoint x="507" y="396" />
            </Array>
          </mxGeometry>
        </mxCell>
      </root>
    </mxGraphModel>
  </diagram>
</mxfile>
